ffmpeg version 3.4.8-0ubuntu0.2 Copyright (c) 2000-2020 the FFmpeg developers
  built with gcc 7 (Ubuntu 7.5.0-3ubuntu1~18.04)
  configuration: --prefix=/usr --extra-version=0ubuntu0.2 --toolchain=hardened --libdir=/usr/lib/x86_64-linux-gnu --incdir=/usr/include/x86_64-linux-gnu --enable-gpl --disable-stripping --enable-avresample --enable-avisynth --enable-gnutls --enable-ladspa --enable-libass --enable-libbluray --enable-libbs2b --enable-libcaca --enable-libcdio --enable-libflite --enable-libfontconfig --enable-libfreetype --enable-libfribidi --enable-libgme --enable-libgsm --enable-libmp3lame --enable-libmysofa --enable-libopenjpeg --enable-libopenmpt --enable-libopus --enable-libpulse --enable-librubberband --enable-librsvg --enable-libshine --enable-libsnappy --enable-libsoxr --enable-libspeex --enable-libssh --enable-libtheora --enable-libtwolame --enable-libvorbis --enable-libvpx --enable-libwavpack --enable-libwebp --enable-libx265 --enable-libxml2 --enable-libxvid --enable-libzmq --enable-libzvbi --enable-omx --enable-openal --enable-opengl --enable-sdl2 --enable-libdc1394 --enable-libdrm --enable-libiec61883 --enable-chromaprint --enable-frei0r --enable-libopencv --enable-libx264 --enable-shared
  libavutil      55. 78.100 / 55. 78.100
  libavcodec     57.107.100 / 57.107.100
  libavformat    57. 83.100 / 57. 83.100
  libavdevice    57. 10.100 / 57. 10.100
  libavfilter     6.107.100 /  6.107.100
  libavresample   3.  7.  0 /  3.  7.  0
  libswscale      4.  8.100 /  4.  8.100
  libswresample   2.  9.100 /  2.  9.100
  libpostproc    54.  7.100 / 54.  7.100
[rawvideo @ 0x564da87e4a20] Estimating duration from bitrate, this may be inaccurate
Input #0, rawvideo, from '../../SVC-Encoder-20220109T061506Z-001/SVC-Encoder/Dataset/RollerCoaster/ERP_8x8/tile_yuv/Tile_49_480x240.yuv':
  Duration: 00:00:10.00, start: 0.000000, bitrate: 41472 kb/s
    Stream #0:0: Video: rawvideo (I420 / 0x30323449), yuv420p, 480x240, 41472 kb/s, 30 tbr, 30 tbn, 30 tbc
Stream mapping:
  Stream #0:0 -> #0:0 (rawvideo (native) -> h264 (libx264))
Press [q] to stop, [?] for help
[libx264 @ 0x564da87f1c60] using cpu capabilities: MMX2 SSE2Fast LZCNT SSSE3 SSE4.2 AVX
[libx264 @ 0x564da87f1c60] profile High, level 2.1
Output #0, rawvideo, to 'RollerCoaster_Tile_49_480x240_x264_QP_20.h264':
  Metadata:
    encoder         : Lavf57.83.100
    Stream #0:0: Video: h264 (libx264), yuv420p, 480x240, q=-1--1, 30 fps, 30 tbn, 30 tbc
    Metadata:
      encoder         : Lavc57.107.100 libx264
    Side data:
      cpb: bitrate max/min/avg: 0/0/0 buffer size: 0 vbv_delay: -1
frame=  144 fps=0.0 q=26.0 PSNR=Y:nan U:nan V:nan *:nan size=      84kB time=00:00:03.36 bitrate= 203.9kbits/s speed=6.66x    frame=  220 fps=218 q=26.0 PSNR=Y:nan U:nan V:nan *:nan size=     144kB time=00:00:05.90 bitrate= 200.1kbits/s speed=5.84x    frame=  300 fps=214 q=26.0 LPSNR=Y:inf U:inf V:inf *:inf size=     233kB time=00:00:09.93 bitrate= 191.9kbits/s speed=7.07x    
video:233kB audio:0kB subtitle:0kB other streams:0kB global headers:0kB muxing overhead: 0.000000%
[libx264 @ 0x564da87f1c60] frame I:2     Avg QP:17.35  size: 17260  PSNR Mean Y:49.88 U:51.98 V:50.67 Avg:50.30 Global:50.28
[libx264 @ 0x564da87f1c60] frame P:76    Avg QP:18.95  size:  1938  PSNR Mean Y:47.31 U:50.93 V:49.65 Avg:48.08 Global:48.04
[libx264 @ 0x564da87f1c60] frame B:222   Avg QP:25.41  size:   255  PSNR Mean Y:46.89 U:50.70 V:49.32 Avg:47.69 Global:47.66
[libx264 @ 0x564da87f1c60] consecutive B-frames:  1.0%  0.7%  1.0% 97.3%
[libx264 @ 0x564da87f1c60] mb I  I16..4: 17.6% 55.8% 26.7%
[libx264 @ 0x564da87f1c60] mb P  I16..4:  2.5%  0.3%  0.0%  P16..4: 44.0% 18.1% 10.7%  0.0%  0.0%    skip:24.3%
[libx264 @ 0x564da87f1c60] mb B  I16..4:  0.0%  0.0%  0.0%  B16..8: 41.2%  1.9%  0.1%  direct: 0.1%  skip:56.7%  L0:45.9% L1:52.5% BI: 1.7%
[libx264 @ 0x564da87f1c60] 8x8 transform intra:32.9% inter:70.3%
[libx264 @ 0x564da87f1c60] coded y,uvDC,uvAC intra: 37.5% 60.7% 33.0% inter: 8.0% 11.6% 0.3%
[libx264 @ 0x564da87f1c60] i16 v,h,dc,p: 39% 37% 19%  5%
[libx264 @ 0x564da87f1c60] i8 v,h,dc,ddl,ddr,vr,hd,vl,hu:  8% 27% 22%  5%  5%  3% 12%  6% 11%
[libx264 @ 0x564da87f1c60] i4 v,h,dc,ddl,ddr,vr,hd,vl,hu:  8% 32%  8%  6%  6%  3% 20%  5% 12%
[libx264 @ 0x564da87f1c60] i8c dc,h,v,p: 43% 40% 10%  7%
[libx264 @ 0x564da87f1c60] Weighted P-Frames: Y:1.3% UV:0.0%
[libx264 @ 0x564da87f1c60] ref P L0: 56.6% 13.7% 23.2%  6.5%  0.0%
[libx264 @ 0x564da87f1c60] ref B L0: 77.1% 19.9%  3.0%
[libx264 @ 0x564da87f1c60] ref B L1: 85.2% 14.8%
[libx264 @ 0x564da87f1c60] PSNR Mean Y:47.019 U:50.769 V:49.414 Avg:47.809 Global:47.767 kb/s:190.63
